<?xml version="1.0" encoding="UTF-8"?>
<svg id="a" data-name="Layer 1" xmlns="http://www.w3.org/2000/svg" viewBox="0 0 463.53 463.53">
  <rect x="12.5" y="12.5" width="438.53" height="438.53" rx="20.01" ry="20.01" style="fill: none; stroke: #0072ce; stroke-miterlimit: 10; stroke-width: 25px;"/>
  <path d="M267.68,84.88c-13.28-26.16-55.23-26.72-69.77-1.61-.05.08-.09.17-.14.26L46.97,393.54c-1.03,2.12.51,4.58,2.86,4.59l80.61.26c.19,0,.38-.01.56-.04,32.25-5.09,47.83-51.98,60.76-78.3.03-.06.06-.12.08-.19,3.07-7.86,7.21-15.07,12.44-21.61.78-.98,1.8-1.74,2.94-2.26h0c1.95-.88,4.07-1.33,6.22-1.33l111.71.36c.37,0,.74.05,1.09.19,4.59,1.76,8.01,7.56,10.26,11.71,7.85,16.48,15.58,32.79,23.19,48.95,6.61,13.6,14.21,26.86,20.03,40.86.5,1.19,1.65,1.98,2.95,1.98h30.99c2.35,0,3.9-2.46,2.88-4.58L267.68,84.88ZM310.5,259.74c-41.91-.14-109.91-1.52-116.95,0-6.19.17-17.18,13.33-20.03,18.18-13.89,23.64-22.98,53.49-36.68,77.68-.07.12-.13.23-.21.34-3.09,4.36-10.86,9.18-16.02,9.18h-15.17c-2.36,0-3.9-2.46-2.88-4.58L228.27,100.65c.44-.91,1.3-1.56,2.29-1.76,5.77-1.14,8.24,3.92,10.83,8.67.03.05.06.1.08.16l70.22,148.03c.54,1.14.39,2.52-.46,3.45-.29.32-.58.53-.73.53Z" style="fill: #0072ce;"/>
</svg>